<?xml version="1.0" encoding="UTF-8"?><svg id="Layer_2" xmlns="http://www.w3.org/2000/svg" width="1913" height="839" viewBox="0 0 1913 839"><defs><style>.cls-1{fill:#f9f9f9;}.cls-2{fill:#001300;}.cls-3{fill:#ed92d7;}.cls-4{fill:#ffcef3;}.cls-5{fill:#ecf0f1;}.cls-6{fill:#ce77b9;}.cls-7{fill:#a67c52;}.cls-8{fill:#ccad93;}.cls-9{fill:#d64545;}.cls-10{fill:#dbbb9c;}.cls-11{fill:#a88e7d;}.cls-12{fill:#231f20;}.cls-13{fill:#352015;}.cls-14{fill:#4d0a74;}</style></defs><g id="Layer_1-2"><g><rect class="cls-4" x="1120" width="793" height="839"/><rect class="cls-14" width="1121" height="839"/><g><rect class="cls-8" x="1093.76" y="398.01" width="58" height="116" rx="25.19" ry="25.19"/><g><path class="cls-7" d="M1176.52,349.61c-10.79,2.03-16.12,21.81-14.09,32.6,2.03,10.79,14.49,28.83,25.29,26.8,10.79-2.03,15.83-23.37,13.79-34.16-2.03-10.79-14.2-27.27-24.99-25.23Z"/><path class="cls-7" d="M1170.52,389.61c-10.79,2.03-16.12,21.81-14.09,32.6,2.03,10.79,14.49,28.83,25.29,26.8,10.79-2.03,15.83-23.37,13.79-34.16-2.03-10.79-14.2-27.27-24.99-25.23Z"/><path class="cls-7" d="M1173.93,294.19c-10.79,2.03-9.53,32.23-7.49,43.02,2.03,10.79,14.49,28.83,25.29,26.8,10.79-2.03,10.24-25.02,8.21-35.81-2.03-10.79-15.21-36.03-26-34Z"/><path class="cls-7" d="M1069.8,353.98c10.79,2.03,16.12,21.81,14.09,32.6-2.03,10.79-14.49,28.83-25.29,26.8-10.79-2.03-15.83-23.37-13.79-34.16,2.03-10.79,14.2-27.27,24.99-25.23Z"/><path class="cls-7" d="M1073.8,388.98c10.79,2.03,16.12,21.81,14.09,32.6-2.03,10.79-14.49,28.83-25.29,26.8-10.79-2.03-15.83-23.37-13.79-34.16,2.03-10.79,14.2-27.27,24.99-25.23Z"/><path class="cls-7" d="M1072.4,298.57c10.79,2.03,9.53,32.23,7.49,43.02-2.03,10.79-14.49,28.83-25.29,26.8-10.79-2.03-10.24-25.02-8.21-35.81s15.21-36.03,26-34Z"/><rect class="cls-10" x="1070.4" y="261.57" width="109.11" height="165.12" rx="54.56" ry="54.56"/><path class="cls-7" d="M1169.53,273.16c-15.57-12.12-40.12-18.87-48.32-12.07-.13-.12-.24-.25-.38-.37-8.55-7.19-34.5,3.91-48.81,20.35-13.32,15.3-20.51,39.77-11.85,46.53,8.6,6.71,31.91-4.74,45.25-18.62,7.49-7.8,13.5-18.1,16.55-27.35,3.97,8.11,10.67,16.78,18.02,23.1,16.43,14.11,43.41,22.69,51.04,14.59,7.61-8.08-4.12-32.61-21.5-46.14Z"/><circle class="cls-2" cx="1105.49" cy="334.51" r="6.94"/><circle class="cls-2" cx="1143.49" cy="334.51" r="6.94"/><path class="cls-13" d="M1168.81,327.3s-5.7-5.08-11.67-6.71c-1.26-.34-2.61-.54-3.95-.65-.48-.24-1.19-.38-2.22-.38h-16.31c-1.8,0-3.26,1.34-3.26,3s1.46,3,3.26,3l18.27-.84c.8,.31,1.6,.6,2.39,.84,5.84,1.75,13.5,1.74,13.5,1.74Z"/><path class="cls-13" d="M1081.95,327.3s5.71-5.08,11.68-6.71c1.26-.34,2.61-.54,3.96-.65,.48-.24,1.19-.38,2.23-.38h16.32c1.8,0,3.26,1.34,3.26,3,0,1.66-1.46,3-3.26,3l-18.28-.84c-.8,.31-1.6,.6-2.39,.84-5.84,1.75-13.51,1.74-13.51,1.74Z"/><g><path class="cls-12" d="M1143.8,388.39l-19.45,.03-19.47,.03c.02,10.75,8.74,19.44,19.49,19.43,10.75-.02,19.44-8.74,19.43-19.49Z"/><rect class="cls-5" x="1105.83" y="381.57" width="36.78" height="8.8" rx="4.4" ry="4.4"/><path class="cls-9" d="M1113.32,402.84c-.05-2.76,5.94-5.56,11.1-5.67,5.54-.11,11.9,2.85,11.84,5.67-.05,2.82-6.55,5.45-12.01,5.29-4.88-.14-10.88-2.55-10.93-5.29Z"/></g><circle class="cls-11" cx="1129.74" cy="365.75" r="2.88"/><circle class="cls-11" cx="1120.1" cy="365.58" r="2.88"/></g><polygon class="cls-3" points="1119.4 672.57 922.4 630.57 920.4 431.57 1119.4 463.57 1119.4 672.57"/><polygon class="cls-6" points="1117.4 673.27 1314.4 631.27 1316.4 432.27 1117.4 464.27 1117.4 673.27"/><path class="cls-1" d="M918.41,430.38l43,7.38,157.24,26.93c2.91-16.97-67.55-26.82-91.31-30.89-23.76-4.08-106.02-20.39-108.93-3.42Z"/><path class="cls-1" d="M1116.33,469.26l43.03-7.54,157.34-27.65c-2.97-16.96-72.73-2.48-96.5,1.69-23.78,4.17-106.84,16.54-103.86,33.5Z"/></g></g></g></svg>