<?xml version="1.0" encoding="UTF-8"?><svg id="Layer_2" xmlns="http://www.w3.org/2000/svg" width="1553.67" height="839" viewBox="0 0 1553.67 839"><defs><style>.cls-1{fill:#f9f9f9;}.cls-2{fill:#001300;}.cls-3{fill:#ed92d7;}.cls-4{fill:#ffcef3;}.cls-5{fill:#ecf0f1;}.cls-6{fill:#ce77b9;}.cls-7{fill:#a67c52;}.cls-8{fill:#ccad93;}.cls-9{fill:#d64545;}.cls-10{fill:#dbbb9c;}.cls-11{fill:#a88e7d;}.cls-12{fill:#231f20;}.cls-13{fill:#352015;}.cls-14{fill:#4d0a74;}</style></defs><g id="Layer_2-2"><rect class="cls-4" x="890.85" width="662.82" height="839"/><rect class="cls-14" width="891.85" height="839"/><g><path class="cls-8" d="M889.8,398.01h7.62c13.91,0,25.19,11.28,25.19,25.19v65.62c0,13.91-11.28,25.19-25.19,25.19h-7.62c-13.91,0-25.19-11.28-25.19-25.19v-65.62c0-13.91,11.28-25.19,25.19-25.19Z"/><g><path class="cls-7" d="M947.38,349.61c-10.79,2.03-16.12,21.81-14.09,32.6,2.03,10.79,14.49,28.83,25.29,26.8,10.79-2.03,15.83-23.37,13.79-34.16-2.03-10.79-14.2-27.27-24.99-25.23h0Z"/><path class="cls-7" d="M941.38,389.61c-10.79,2.03-16.12,21.81-14.09,32.6,2.03,10.79,14.49,28.83,25.29,26.8,10.79-2.03,15.83-23.37,13.79-34.16-2.03-10.79-14.2-27.27-24.99-25.23h0Z"/><path class="cls-7" d="M944.79,294.19c-10.79,2.03-9.53,32.23-7.49,43.02,2.03,10.79,14.49,28.83,25.29,26.8,10.79-2.03,10.24-25.02,8.21-35.81s-15.21-36.03-26.01-34h-.01Z"/><path class="cls-7" d="M840.64,353.98c10.79,2.03,16.12,21.81,14.09,32.6-2.03,10.79-14.49,28.83-25.29,26.8-10.79-2.03-15.83-23.37-13.79-34.16,2.03-10.79,14.2-27.27,24.99-25.23h0Z"/><path class="cls-7" d="M844.64,388.98c10.79,2.03,16.12,21.81,14.09,32.6s-14.49,28.83-25.29,26.8c-10.79-2.03-15.83-23.37-13.79-34.16,2.03-10.79,14.2-27.27,24.99-25.23h0Z"/><path class="cls-7" d="M843.24,298.57c10.79,2.03,9.53,32.23,7.49,43.02-2.03,10.79-14.49,28.83-25.29,26.8-10.79-2.03-10.24-25.02-8.21-35.81,2.03-10.79,15.21-36.03,26.01-34h.01Z"/><path class="cls-10" d="M895.8,261.57h0c30.14,0,54.57,24.43,54.57,54.56v56c0,30.13-24.43,54.56-54.57,54.56h0c-30.14,0-54.57-24.43-54.57-54.56v-56c0-30.13,24.43-54.56,54.57-54.56Z"/><path class="cls-7" d="M940.39,273.16c-15.57-12.12-40.13-18.87-48.33-12.07-.13-.12-.24-.25-.38-.37-8.55-7.19-34.51,3.91-48.82,20.35-13.32,15.3-20.51,39.77-11.85,46.53,8.6,6.71,31.92-4.74,45.26-18.62,7.49-7.8,13.5-18.1,16.55-27.35,3.97,8.11,10.67,16.78,18.02,23.1,16.43,14.11,43.42,22.69,51.05,14.59,7.61-8.08-4.12-32.61-21.5-46.14v-.02Z"/><circle class="cls-2" cx="876.34" cy="334.51" r="6.94"/><circle class="cls-2" cx="914.34" cy="334.51" r="6.94"/><path class="cls-13" d="M939.67,327.3s-5.7-5.08-11.67-6.71c-1.26-.34-2.61-.54-3.95-.65-.48-.24-1.19-.38-2.22-.38h-16.31c-1.8,0-3.26,1.34-3.26,3s1.46,3,3.26,3l18.27-.84c.8,.31,1.6,.6,2.39,.84,5.84,1.75,13.5,1.74,13.5,1.74h-.01Z"/><path class="cls-13" d="M852.79,327.3s5.71-5.08,11.68-6.71c1.26-.34,2.61-.54,3.96-.65,.48-.24,1.19-.38,2.23-.38h16.32c1.8,0,3.26,1.34,3.26,3s-1.46,3-3.26,3l-18.28-.84c-.8,.31-1.6,.6-2.39,.84-5.84,1.75-13.51,1.74-13.51,1.74h0Z"/><g><path class="cls-12" d="M914.65,388.39l-19.45,.03-19.47,.03c.02,10.75,8.74,19.44,19.49,19.43,10.75-.02,19.44-8.74,19.43-19.49h0Z"/><path class="cls-5" d="M881.08,381.57h27.99c2.43,0,4.4,1.97,4.4,4.4h0c0,2.43-1.97,4.4-4.4,4.4h-27.99c-2.43,0-4.4-1.97-4.4-4.4h0c0-2.43,1.97-4.4,4.4-4.4Z"/><path class="cls-9" d="M884.17,402.84c-.05-2.76,5.94-5.56,11.1-5.67,5.54-.11,11.9,2.85,11.84,5.67-.05,2.82-6.55,5.45-12.01,5.29-4.88-.14-10.88-2.55-10.93-5.29h0Z"/></g><circle class="cls-11" cx="900.59" cy="365.75" r="2.88"/><circle class="cls-11" cx="890.95" cy="365.58" r="2.88"/></g><polygon class="cls-3" points="890.25 672.57 693.21 630.57 691.21 431.57 890.25 463.57 890.25 672.57"/><polygon class="cls-6" points="888.25 673.27 1085.29 631.27 1087.29 432.27 888.25 464.27 888.25 673.27"/><path class="cls-1" d="M689.22,430.38l43.01,7.38,157.27,26.93c2.91-16.97-67.56-26.82-91.33-30.89-23.76-4.08-106.04-20.39-108.95-3.42h0Z"/><path class="cls-1" d="M887.18,469.26l43.04-7.54,157.37-27.65c-2.97-16.96-72.74-2.48-96.52,1.69-23.78,4.17-106.86,16.54-103.88,33.5h-.01Z"/></g></g></svg>